<svg xmlns="http://www.w3.org/2000/svg" viewBox="0 0 1024 1024" role="img" aria-label="FilteredResearch FR mark">
  <rect width="1024" height="1024" fill="#fbfcfb"/>
  <path d="M190 116H756Q884 116 884 244V770Q884 908 746 908H254Q116 908 116 770V254Q116 116 254 116Z" fill="#fbfcfb" stroke="#111311" stroke-width="28"/>
  <path d="M294 238H696Q790 238 790 332V718Q790 806 702 806H320Q232 806 232 718V326Q232 238 320 238Z" fill="#a6d2ca"/>
  <path d="M76 302H430" fill="none" stroke="#477c73" stroke-width="24"/>
  <path d="M746 662V950" fill="none" stroke="#477c73" stroke-width="24"/>
  <path d="M342 674V362H508M342 506H478" fill="none" stroke="#111311" stroke-linecap="square" stroke-linejoin="miter" stroke-width="52"/>
  <path d="M558 674V362H654Q734 362 734 442Q734 522 654 522H558M650 522L742 674" fill="none" stroke="#111311" stroke-linecap="square" stroke-linejoin="miter" stroke-width="52"/>
</svg>
